# xmcd
#
# Track frame offsets:
#   150
#   11525
#   25275
#   38300
#   49720
#   61785
#   74692
#   87665
#   99487
#   112527
#   124527
#   137540
#   148825
#   161497
#   171952
#   183682
#   195690
#
# Disc length: 2769 seconds
#
# Revision: 11
# Processed by: cddbd v1.5.2PL0 Copyright (c) Steve Scherf et al.
# Submitted via: Media_Universe 3.0
#
DISCID=e20acf11
DTITLE=Robert Johnson - Robert Johnson - King Of The Delta Blues Singers
DYEAR=1998
DGENRE=Blues
TTITLE0=Robert Johnson - Cross Road Blues
TTITLE1=Robert Johnson - Terraplane Blues
TTITLE2=Robert Johnson - Come On In My Kitchen
TTITLE3=Robert Johnson - Walkin' Blues
TTITLE4=Robert Johnson - Last Fair Deal Gone Down
TTITLE5=Robert Johnson - 32-20 Blues
TTITLE6=Robert Johnson - Kind Hearted Woman Blues
TTITLE7=Robert Johnson - If I Had Possession Over Judgement Day
TTITLE8=Robert Johnson - Preachin' Blues (Up Jumped The Devil)
TTITLE9=Robert Johnson - When You Got A Good Friend
TTITLE10=Robert Johnson - Ramblin' On My Mind
TTITLE11=Robert Johnson - Stones In My Passway
TTITLE12=Robert Johnson - Traveling Riverside Blues
TTITLE13=Robert Johnson - Milkcow's Calf Blues
TTITLE14=Robert Johnson - Me And The Devil Blues
TTITLE15=Robert Johnson - Hell Hound On My Trail
TTITLE16=Robert Johnson - Traveling Riverside Blues (Previously Unreleased Alternate Take)
EXTD=1998 Columbia/Legacy\nOriginally Released 1961\nRemastered Edition Released Sept
EXTD=ember 15, 1998\nGold CD Version Released June 28, 1994\n\nAMG EXPERT REVIEW: Rea
EXTD=ding about the power inherent in Robert Johnson's music is one thing, but actual
EXTD=ly experiencing it is another matter entirely. The official 1998 edition of the 
EXTD=original 1961 album was certainly worth the wait, remastered off the best-qualit
EXTD=y original 78s available, of far superior quality to any of the source materials
EXTT0=
EXTT1=
EXTT2=
EXTT3=
EXTT4=
EXTT5=
EXTT6=
EXTT7=
EXTT8=
EXTT9=
EXTT10=
EXTT11=
EXTT12=
EXTT13=
EXTT14=
EXTT15=
EXTT16=
PLAYORDER=
